# xmcd
#
# Track frame offsets: 
#        150
#        33062
#        54185
#        76717
#        95717
#        126825
#        147597
#        165260
#        181325
#        204475
#        227240
#        251947
#
# Disc length: 3560 seconds
#
# Revision: 1
# Processed by: cddbd v1.5.2PL0 Copyright (c) Steve Scherf et al.
# Submitted via: ExactAudioCopy v0.99pb4
#
DISCID=9a0de60c
DTITLE=Chris Rea - Auberge
DYEAR=1991
DGENRE=Rock
TTITLE0=Auberge
TTITLE1=Gone Fishing
TTITLE2=You're Not A Number
TTITLE3=Heaven
TTITLE4=Set Me Free
TTITLE5=Winter Song
TTITLE6=Red Shoes
TTITLE7=Sing A Song Of Love To Me
TTITLE8=Every Second Counts
TTITLE9=Looking For The Summer
TTITLE10=And You My Love
TTITLE11=The Mention Of Your Name
EXTD=ID3G:  17\n
EXTT0=
EXTT1=
EXTT2=
EXTT3=
EXTT4=
EXTT5=
EXTT6=
EXTT7=
EXTT8=
EXTT9=
EXTT10=
EXTT11=
PLAYORDER=
